<svg width="200" height="40" viewBox="0 0 200 40" fill="none" xmlns="http://www.w3.org/2000/svg">
<g clip-path="url(#clip0_27_810)">
<mask id="mask0_27_810" style="mask-type:alpha" maskUnits="userSpaceOnUse" x="0" y="0" width="40" height="40">
<path d="M20 40C31.0457 40 40 31.0457 40 20C40 8.9543 31.0457 0 20 0C8.9543 0 0 8.9543 0 20C0 31.0457 8.9543 40 20 40Z" fill="white"/>
</mask>
<g mask="url(#mask0_27_810)">
<path d="M20 40C31.0457 40 40 31.0457 40 20C40 8.9543 31.0457 0 20 0C8.9543 0 0 8.9543 0 20C0 31.0457 8.9543 40 20 40Z" fill="#0054FF"/>
<path fill-rule="evenodd" clip-rule="evenodd" d="M30.9129 31.6193C31.5473 30.985 32.5758 30.985 33.2102 31.6193L37.1878 35.5969C37.8221 36.2313 37.8221 37.2598 37.1878 37.8942C36.5534 38.5285 35.5249 38.5285 34.8905 37.8942L30.9129 33.9166C30.2786 33.2822 30.2786 32.2537 30.9129 31.6193ZM24.7919 25.9044C25.9021 24.7943 27.6959 24.7882 28.7986 25.8909C29.9012 26.9935 29.8952 28.7874 28.785 29.8975C27.6749 31.0077 25.881 31.0137 24.7784 29.9111C23.6757 28.8084 23.6818 27.0146 24.7919 25.9044ZM20.357 31.6474C20.9871 31.0173 22.0087 31.0173 22.6387 31.6474C23.2688 32.2774 23.2688 33.299 22.6387 33.9291L18.603 37.9648C17.9729 38.5949 16.9514 38.5949 16.3213 37.9648C15.6912 37.3347 15.6912 36.3132 16.3213 35.6831L20.357 31.6474ZM16.3919 17.0983C17.0263 16.464 18.0548 16.464 18.6892 17.0983L22.6668 21.0759C23.3011 21.7103 23.3011 22.7388 22.6668 23.3732C22.0324 24.0075 21.0039 24.0075 20.3695 23.3732L16.3919 19.3956C15.7576 18.7612 15.7576 17.7327 16.3919 17.0983ZM10.2709 11.3834C11.3811 10.2733 13.1749 10.2672 14.2776 11.3699C15.3802 12.4725 15.3742 14.2664 14.264 15.3765C13.1539 16.4867 11.36 16.4927 10.2574 15.3901C9.15471 14.2874 9.16078 12.4936 10.2709 11.3834ZM20.4557 2.50666C21.0858 1.87657 22.1073 1.87657 22.7374 2.50666C23.3675 3.13675 23.3675 4.15833 22.7374 4.78842L18.7017 8.82413C18.0716 9.45422 17.05 9.45422 16.4199 8.82413C15.7899 8.19404 15.7899 7.17246 16.4199 6.54238L20.4557 2.50666ZM1.87092 2.57732C2.50529 1.94295 3.53381 1.94295 4.16818 2.57732L8.14575 6.55489C8.78012 7.18926 8.78012 8.21778 8.14575 8.85215C7.51138 9.48652 6.48286 9.48652 5.84849 8.85215L1.87092 4.87458C1.23655 4.24021 1.23655 3.21169 1.87092 2.57732Z" fill="white"/>
</g>
<path d="M54.3156 30.5257C55.6717 30.5257 56.8489 30.2597 57.8472 29.7278C58.8454 29.1959 59.6773 28.2372 60.3428 26.8517L60.7948 30.1546H65.3906V16.6647C65.3906 15.4153 65.1206 14.336 64.5807 13.4268C64.0407 12.5175 63.168 11.8186 61.9626 11.33C60.7572 10.8414 59.1562 10.597 57.1597 10.597C55.5399 10.597 54.0927 10.8166 52.8182 11.2558C51.5437 11.6949 50.536 12.3629 49.7952 13.2598C49.0544 14.1566 48.6463 15.2978 48.5709 16.6833H53.1478C53.4115 15.7926 53.9044 15.1679 54.6264 14.8091C55.3484 14.4504 56.1112 14.2648 56.9148 14.2525C58.0073 14.2401 58.814 14.4721 59.3351 14.9483C59.8562 15.4246 60.1168 16.1018 60.1168 16.9801V18.1306L57.6871 18.1677C54.2465 18.2048 51.7289 18.7707 50.1342 19.8655C48.5395 20.9603 47.7422 22.5592 47.7422 24.6621C47.7422 25.9115 48.031 26.9723 48.6086 27.8444C49.1862 28.7165 49.971 29.3814 50.963 29.8391C51.9549 30.2968 53.0725 30.5257 54.3156 30.5257ZM56.1614 26.963C55.2699 26.963 54.5102 26.7125 53.8824 26.2115C53.2546 25.7105 52.9406 25.0147 52.9406 24.124C52.9406 23.3447 53.1824 22.7262 53.6658 22.2685C54.1492 21.8108 54.7865 21.4799 55.5775 21.2757C56.3686 21.0716 57.2225 20.9634 58.1391 20.951L60.1168 20.9139V23.7529C60.1168 24.1611 60.0038 24.557 59.7777 24.9405C59.5517 25.3239 59.2535 25.6672 58.8831 25.9703C58.5127 26.2734 58.092 26.5146 57.6211 26.694C57.1503 26.8733 56.6637 26.963 56.1614 26.963ZM76.4844 30.4886C76.8611 30.4886 77.2441 30.4422 77.6333 30.3494C78.0226 30.2566 78.4056 30.1484 78.7823 30.0247V26.6847L77.8593 26.629C77.0055 26.5301 76.4247 26.261 76.1171 25.8218C75.8095 25.3827 75.6556 24.8106 75.6556 24.1055V2.58105H70.2688V24.7735C70.2688 25.4662 70.3253 26.1497 70.4383 26.8238C70.5514 27.498 70.8088 28.1104 71.2106 28.6608C71.6124 29.2113 72.234 29.6536 73.0752 29.9876C73.9165 30.3216 75.0529 30.4886 76.4844 30.4886ZM91.3075 30.5257C92.6636 30.5257 93.9695 30.2721 95.2252 29.7649C96.4809 29.2577 97.5513 28.5217 98.4366 27.5568C99.3218 26.5919 99.8712 25.4291 100.085 24.0683H95.131C94.8548 24.9714 94.3619 25.6208 93.6525 26.0167C92.943 26.4125 92.1174 26.6105 91.1757 26.6105C90.2967 26.6105 89.5465 26.4156 88.9249 26.026C88.3033 25.6363 87.8293 25.0796 87.5029 24.356C87.1764 23.6323 87.0194 22.7818 87.032 21.8046H100.103V20.3387C100.103 18.4213 99.7613 16.7296 99.077 15.2638C98.3926 13.7979 97.3755 12.6536 96.0257 11.831C94.6758 11.0084 93.0089 10.597 91.025 10.597C89.041 10.597 87.3428 11.0455 85.9301 11.9423C84.5175 12.8392 83.4408 14.0576 82.6999 15.5978C81.9591 17.1379 81.5887 18.8666 81.5887 20.784C81.5887 22.7633 81.9968 24.4828 82.8129 25.9425C83.6291 27.4022 84.7686 28.531 86.2315 29.3288C87.6943 30.1267 89.3864 30.5257 91.3075 30.5257ZM94.9615 18.5759H87.0131C87.0131 17.8708 87.1701 17.1966 87.484 16.5534C87.7979 15.9101 88.2531 15.3875 88.8496 14.9854C89.446 14.5834 90.1711 14.3824 91.025 14.3824C91.904 14.3824 92.6354 14.5679 93.2193 14.939C93.8032 15.3101 94.2395 15.8173 94.5283 16.4606C94.8171 17.1038 94.9615 17.809 94.9615 18.5759ZM109.427 36.1294V27.2785C109.703 27.7362 110.026 28.1598 110.397 28.5495C110.767 28.9392 111.188 29.2825 111.659 29.5793C112.13 29.8762 112.641 30.1082 113.194 30.2752C113.746 30.4422 114.336 30.5257 114.964 30.5257C116.496 30.5257 117.871 30.1669 119.089 29.4495C120.307 28.732 121.265 27.6279 121.961 26.1373C122.658 24.6467 123.007 22.7385 123.007 20.4129C123.007 18.1739 122.683 16.3276 122.037 14.8741C121.39 13.4206 120.502 12.3444 119.372 11.6454C118.242 10.9465 116.955 10.597 115.51 10.597C114.845 10.597 114.211 10.6744 113.608 10.829C113.005 10.9836 112.447 11.2032 111.932 11.4877C111.417 11.7722 110.949 12.1031 110.529 12.4804C110.108 12.8577 109.753 13.2752 109.464 13.7329L109.446 10.9682H103.927V36.1294H109.427ZM113.646 26.5548C112.692 26.5548 111.904 26.2703 111.282 25.7012C110.66 25.1322 110.196 24.3838 109.888 23.456C109.581 22.5282 109.427 21.5262 109.427 20.45C109.427 18.7677 109.775 17.3605 110.472 16.2286C111.169 15.0968 112.227 14.5308 113.646 14.5308C114.914 14.5308 115.934 15.0535 116.707 16.0988C117.479 17.144 117.865 18.5945 117.865 20.45C117.865 22.5654 117.46 24.1116 116.65 25.0889C115.84 26.0662 114.839 26.5548 113.646 26.5548ZM132.161 30.1546V17.9079C132.161 17.277 132.333 16.7482 132.679 16.3214C133.024 15.8946 133.473 15.5761 134.025 15.3658C134.578 15.1555 135.149 15.0504 135.739 15.0504C136.643 15.0504 137.412 15.2823 138.047 15.7462C138.681 16.2101 138.998 16.875 138.998 17.7409V30.1546H144.516V16.943C144.516 15.6441 144.206 14.5432 143.584 13.6401C142.962 12.7371 142.14 12.0475 141.117 11.5712C140.093 11.0949 138.96 10.8568 137.717 10.8568C136.687 10.8568 135.815 11.0053 135.099 11.3021C134.383 11.599 133.787 11.9671 133.31 12.4062C132.832 12.8454 132.437 13.2876 132.123 13.7329V2.58105H126.661V30.1546H132.161Z" fill="white"/>
<path d="M165.353 30.9678V11.5782H160.038V30.9678H165.353ZM175.962 30.9678V18.5539C175.962 17.9039 176.134 17.3632 176.476 16.9319C176.819 16.5006 177.245 16.1818 177.753 15.9755C178.261 15.7693 178.768 15.6661 179.276 15.6661C179.772 15.6661 180.257 15.7693 180.734 15.9755C181.21 16.1818 181.607 16.485 181.924 16.885C182.242 17.2851 182.4 17.7789 182.4 18.3664V30.9678H187.943V18.5539C187.943 17.8664 188.121 17.3101 188.476 16.885C188.832 16.46 189.264 16.1506 189.772 15.9568C190.28 15.763 190.781 15.6661 191.276 15.6661C191.81 15.6661 192.314 15.7693 192.791 15.9755C193.267 16.1818 193.661 16.5193 193.972 16.9881C194.283 17.4569 194.438 18.0789 194.438 18.854V30.9678H200V18.1789C200 16.8663 199.807 15.763 199.419 14.8692C199.032 13.9753 198.521 13.2596 197.886 12.722C197.251 12.1845 196.556 11.7969 195.8 11.5594C195.045 11.3219 194.299 11.2031 193.562 11.2031C192.292 11.2031 191.14 11.5 190.105 12.0938C189.07 12.6877 188.235 13.4284 187.6 14.316C187.219 13.6284 186.721 13.0565 186.105 12.6002C185.489 12.1439 184.832 11.7969 184.134 11.5594C183.435 11.3219 182.749 11.2031 182.076 11.2031C180.54 11.2031 179.267 11.5094 178.257 12.122C177.248 12.7345 176.445 13.4659 175.848 14.316V11.5782H170.4V30.9678H175.962Z" fill="white"/>
<path d="M162.581 7.74234C164.006 7.74234 165.162 6.58695 165.162 5.1617C165.162 3.73645 164.006 2.58105 162.581 2.58105C161.156 2.58105 160 3.73645 160 5.1617C160 6.58695 161.156 7.74234 162.581 7.74234Z" fill="white"/>
<path d="M152.258 30.9679C153.684 30.9679 154.839 29.8125 154.839 28.3873C154.839 26.962 153.684 25.8066 152.258 25.8066C150.833 25.8066 149.678 26.962 149.678 28.3873C149.678 29.8125 150.833 30.9679 152.258 30.9679Z" fill="white"/>
</g>
<defs>
<clipPath id="clip0_27_810">
<rect width="200" height="40" fill="white"/>
</clipPath>
</defs>
</svg>
