<svg width="200" height="40" viewBox="0 0 200 40" fill="none" xmlns="http://www.w3.org/2000/svg">
<mask id="mask0_27_818" style="mask-type:alpha" maskUnits="userSpaceOnUse" x="0" y="0" width="40" height="40">
<path d="M20 40C31.0457 40 40 31.0457 40 20C40 8.9543 31.0457 0 20 0C8.9543 0 0 8.9543 0 20C0 31.0457 8.9543 40 20 40Z" fill="white"/>
</mask>
<g mask="url(#mask0_27_818)">
<path d="M20 40C31.0457 40 40 31.0457 40 20C40 8.9543 31.0457 0 20 0C8.9543 0 0 8.9543 0 20C0 31.0457 8.9543 40 20 40Z" fill="#0054FF"/>
<path fill-rule="evenodd" clip-rule="evenodd" d="M30.9129 31.6193C31.5473 30.985 32.5758 30.985 33.2102 31.6193L37.1878 35.5969C37.8221 36.2313 37.8221 37.2598 37.1878 37.8942C36.5534 38.5285 35.5249 38.5285 34.8905 37.8942L30.9129 33.9166C30.2786 33.2822 30.2786 32.2537 30.9129 31.6193ZM24.7919 25.9044C25.9021 24.7943 27.6959 24.7882 28.7986 25.8909C29.9012 26.9935 29.8952 28.7874 28.785 29.8975C27.6749 31.0077 25.881 31.0137 24.7784 29.9111C23.6757 28.8084 23.6818 27.0146 24.7919 25.9044ZM20.357 31.6474C20.9871 31.0173 22.0087 31.0173 22.6387 31.6474C23.2688 32.2774 23.2688 33.299 22.6387 33.9291L18.603 37.9648C17.9729 38.5949 16.9514 38.5949 16.3213 37.9648C15.6912 37.3347 15.6912 36.3132 16.3213 35.6831L20.357 31.6474ZM16.3919 17.0983C17.0263 16.464 18.0548 16.464 18.6892 17.0983L22.6668 21.0759C23.3011 21.7103 23.3011 22.7388 22.6668 23.3732C22.0324 24.0075 21.0039 24.0075 20.3695 23.3732L16.3919 19.3956C15.7576 18.7612 15.7576 17.7327 16.3919 17.0983ZM10.2709 11.3834C11.3811 10.2733 13.1749 10.2672 14.2776 11.3699C15.3802 12.4725 15.3742 14.2664 14.264 15.3765C13.1539 16.4867 11.36 16.4927 10.2574 15.3901C9.15471 14.2874 9.16078 12.4936 10.2709 11.3834ZM20.4557 2.50666C21.0858 1.87657 22.1073 1.87657 22.7374 2.50666C23.3675 3.13675 23.3675 4.15833 22.7374 4.78842L18.7017 8.82413C18.0716 9.45422 17.05 9.45422 16.4199 8.82413C15.7899 8.19404 15.7899 7.17246 16.4199 6.54238L20.4557 2.50666ZM1.87092 2.57732C2.50529 1.94295 3.53381 1.94295 4.16818 2.57732L8.14575 6.55489C8.78012 7.18926 8.78012 8.21778 8.14575 8.85215C7.51138 9.48652 6.48286 9.48652 5.84849 8.85215L1.87092 4.87458C1.23655 4.24021 1.23655 3.21169 1.87092 2.57732Z" fill="white"/>
</g>
<path d="M54.3154 30.5257C55.6715 30.5257 56.8487 30.2597 57.8469 29.7278C58.8452 29.1959 59.677 28.2372 60.3426 26.8517L60.7946 30.1546H65.3903V16.6647C65.3903 15.4153 65.1204 14.336 64.5804 13.4268C64.0405 12.5175 63.1678 11.8186 61.9624 11.33C60.7569 10.8414 59.1559 10.597 57.1594 10.597C55.5396 10.597 54.0925 10.8166 52.818 11.2558C51.5435 11.6949 50.5358 12.3629 49.795 13.2598C49.0541 14.1566 48.646 15.2978 48.5707 16.6833H53.1476C53.4113 15.7926 53.9041 15.1679 54.6261 14.8091C55.3481 14.4504 56.111 14.2648 56.9146 14.2525C58.007 14.2401 58.8138 14.4721 59.3349 14.9483C59.856 15.4246 60.1165 16.1018 60.1165 16.9801V18.1306L57.6868 18.1677C54.2463 18.2048 51.7287 18.7707 50.134 19.8655C48.5393 20.9603 47.7419 22.5592 47.7419 24.6621C47.7419 25.9115 48.0307 26.9723 48.6084 27.8444C49.186 28.7165 49.9708 29.3814 50.9627 29.8391C51.9547 30.2968 53.0722 30.5257 54.3154 30.5257ZM56.1612 26.963C55.2697 26.963 54.51 26.7125 53.8821 26.2115C53.2543 25.7105 52.9404 25.0147 52.9404 24.124C52.9404 23.3447 53.1821 22.7262 53.6655 22.2685C54.149 21.8108 54.7862 21.4799 55.5773 21.2757C56.3684 21.0716 57.2222 20.9634 58.1389 20.951L60.1165 20.9139V23.7529C60.1165 24.1611 60.0035 24.557 59.7775 24.9405C59.5515 25.3239 59.2533 25.6672 58.8828 25.9703C58.5124 26.2734 58.0918 26.5146 57.6209 26.694C57.15 26.8733 56.6635 26.963 56.1612 26.963ZM76.4841 30.4886C76.8608 30.4886 77.2438 30.4422 77.6331 30.3494C78.0223 30.2566 78.4053 30.1484 78.782 30.0247V26.6847L77.8591 26.629C77.0052 26.5301 76.4245 26.261 76.1169 25.8218C75.8092 25.3827 75.6554 24.8106 75.6554 24.1055V2.58105H70.2686V24.7735C70.2686 25.4662 70.3251 26.1497 70.4381 26.8238C70.5511 27.498 70.8085 28.1104 71.2103 28.6608C71.6122 29.2113 72.2337 29.6536 73.075 29.9876C73.9163 30.3216 75.0527 30.4886 76.4841 30.4886ZM91.3073 30.5257C92.6634 30.5257 93.9693 30.2721 95.225 29.7649C96.4806 29.2577 97.5511 28.5217 98.4363 27.5568C99.3216 26.5919 99.8709 25.4291 100.084 24.0683H95.1308C94.8545 24.9714 94.3617 25.6208 93.6522 26.0167C92.9428 26.4125 92.1172 26.6105 91.1754 26.6105C90.2965 26.6105 89.5462 26.4156 88.9247 26.026C88.3031 25.6363 87.8291 25.0796 87.5026 24.356C87.1761 23.6323 87.0192 22.7818 87.0317 21.8046H100.103V20.3387C100.103 18.4213 99.761 16.7296 99.0767 15.2638C98.3924 13.7979 97.3753 12.6536 96.0254 11.831C94.6756 11.0084 93.0087 10.597 91.0248 10.597C89.0408 10.597 87.3425 11.0455 85.9299 11.9423C84.5173 12.8392 83.4405 14.0576 82.6997 15.5978C81.9588 17.1379 81.5884 18.8666 81.5884 20.784C81.5884 22.7633 81.9965 24.4828 82.8127 25.9425C83.6289 27.4022 84.7684 28.531 86.2313 29.3288C87.6941 30.1267 89.3861 30.5257 91.3073 30.5257ZM94.9613 18.5759H87.0129C87.0129 17.8708 87.1699 17.1966 87.4838 16.5534C87.7977 15.9101 88.2529 15.3875 88.8493 14.9854C89.4458 14.5834 90.1709 14.3824 91.0248 14.3824C91.9037 14.3824 92.6351 14.5679 93.219 14.939C93.8029 15.3101 94.2393 15.8173 94.5281 16.4606C94.8169 17.1038 94.9613 17.809 94.9613 18.5759ZM109.427 36.1294V27.2785C109.703 27.7362 110.026 28.1598 110.397 28.5495C110.767 28.9392 111.188 29.2825 111.658 29.5793C112.129 29.8762 112.641 30.1082 113.194 30.2752C113.746 30.4422 114.336 30.5257 114.964 30.5257C116.496 30.5257 117.871 30.1669 119.089 29.4495C120.307 28.732 121.264 27.6279 121.961 26.1373C122.658 24.6467 123.007 22.7385 123.007 20.4129C123.007 18.1739 122.683 16.3276 122.037 14.8741C121.39 13.4206 120.502 12.3444 119.371 11.6454C118.241 10.9465 116.954 10.597 115.51 10.597C114.845 10.597 114.211 10.6744 113.608 10.829C113.005 10.9836 112.446 11.2032 111.932 11.4877C111.417 11.7722 110.949 12.1031 110.528 12.4804C110.108 12.8577 109.753 13.2752 109.464 13.7329L109.445 10.9682H103.927V36.1294H109.427ZM113.646 26.5548C112.691 26.5548 111.903 26.2703 111.282 25.7012C110.66 25.1322 110.196 24.3838 109.888 23.456C109.58 22.5282 109.427 21.5262 109.427 20.45C109.427 18.7677 109.775 17.3605 110.472 16.2286C111.169 15.0968 112.227 14.5308 113.646 14.5308C114.914 14.5308 115.934 15.0535 116.706 16.0988C117.478 17.144 117.865 18.5945 117.865 20.45C117.865 22.5654 117.46 24.1116 116.65 25.0889C115.84 26.0662 114.838 26.5548 113.646 26.5548ZM132.16 30.1546V17.9079C132.16 17.277 132.333 16.7482 132.678 16.3214C133.024 15.8946 133.473 15.5761 134.025 15.3658C134.578 15.1555 135.149 15.0504 135.739 15.0504C136.643 15.0504 137.412 15.2823 138.046 15.7462C138.68 16.2101 138.997 16.875 138.997 17.7409V30.1546H144.516V16.943C144.516 15.6441 144.205 14.5432 143.584 13.6401C142.962 12.7371 142.14 12.0475 141.116 11.5712C140.093 11.0949 138.96 10.8568 137.717 10.8568C136.687 10.8568 135.814 11.0053 135.099 11.3021C134.383 11.599 133.786 11.9671 133.309 12.4062C132.832 12.8454 132.437 13.2876 132.123 13.7329V2.58105H126.661V30.1546H132.16Z" fill="black"/>
<path d="M165.352 30.9678V11.5782H160.038V30.9678H165.352ZM175.962 30.9678V18.5539C175.962 17.9039 176.133 17.3632 176.476 16.9319C176.819 16.5006 177.244 16.1818 177.752 15.9755C178.26 15.7693 178.768 15.6661 179.276 15.6661C179.771 15.6661 180.257 15.7693 180.733 15.9755C181.21 16.1818 181.606 16.485 181.924 16.885C182.241 17.2851 182.4 17.7789 182.4 18.3664V30.9678H187.943V18.5539C187.943 17.8664 188.121 17.3101 188.476 16.885C188.832 16.46 189.263 16.1506 189.771 15.9568C190.279 15.763 190.781 15.6661 191.276 15.6661C191.81 15.6661 192.314 15.7693 192.79 15.9755C193.267 16.1818 193.66 16.5193 193.971 16.9881C194.283 17.4569 194.438 18.0789 194.438 18.854V30.9678H200V18.1789C200 16.8663 199.806 15.763 199.419 14.8692C199.032 13.9753 198.521 13.2596 197.886 12.722C197.251 12.1845 196.556 11.7969 195.8 11.5594C195.044 11.3219 194.298 11.2031 193.562 11.2031C192.292 11.2031 191.14 11.5 190.105 12.0938C189.07 12.6877 188.235 13.4284 187.6 14.316C187.219 13.6284 186.721 13.0565 186.105 12.6002C185.489 12.1439 184.832 11.7969 184.133 11.5594C183.435 11.3219 182.749 11.2031 182.076 11.2031C180.54 11.2031 179.267 11.5094 178.257 12.122C177.248 12.7345 176.444 13.4659 175.848 14.316V11.5782H170.4V30.9678H175.962Z" fill="black"/>
<path d="M162.581 7.74234C164.006 7.74234 165.161 6.58695 165.161 5.1617C165.161 3.73645 164.006 2.58105 162.581 2.58105C161.155 2.58105 160 3.73645 160 5.1617C160 6.58695 161.155 7.74234 162.581 7.74234Z" fill="black"/>
<path d="M152.258 30.9679C153.683 30.9679 154.839 29.8125 154.839 28.3873C154.839 26.962 153.683 25.8066 152.258 25.8066C150.833 25.8066 149.677 26.962 149.677 28.3873C149.677 29.8125 150.833 30.9679 152.258 30.9679Z" fill="black"/>
</svg>
