<svg width="1161" height="251" viewBox="0 0 1161 251" fill="none" xmlns="http://www.w3.org/2000/svg">
<path d="M200.751 189.382C198.961 189.382 197.868 188.665 197.172 187.256C196.451 185.822 196.451 184.413 197.346 182.979L277.219 45.8242C278.113 44.2173 279.381 42.8081 280.797 41.7204C282.413 40.4843 284.376 39.9404 286.911 39.9404H320.112C322.622 39.9404 324.238 40.4843 325.306 41.7204C326.375 42.9565 326.922 44.3903 327.096 45.8242L348.269 182.979C348.617 184.932 348.269 186.539 347.2 187.602C346.132 188.665 344.69 189.382 343.249 189.382H317.23C315.067 189.382 313.452 188.838 312.557 187.949C311.663 187.059 310.942 185.822 310.768 184.562L307.19 163.177H249.584L236.661 184.908C235.94 185.971 235.046 186.861 233.778 187.924C232.511 188.987 230.895 189.358 228.758 189.358H200.751V189.382ZM265.017 132.374H305.052L297.149 75.9103L265.017 132.374Z" fill="white"/>
<path d="M367.33 189.382C365.715 189.382 364.448 188.839 363.752 187.949C362.857 187.059 362.683 185.625 362.857 184.216L393.201 42.9566C393.549 41.3497 394.27 40.1136 395.537 39.0505C396.804 37.9875 398.221 37.6167 399.662 37.6167H425.16C426.601 37.6167 427.67 38.1606 428.565 39.0505C429.459 40.1136 429.633 41.3744 429.459 42.9566L399.314 184.043C398.966 185.65 398.246 186.886 396.978 187.776C395.711 188.839 394.294 189.209 392.853 189.209H367.355V189.382H367.33Z" fill="white"/>
<path d="M477.696 191.533C466.562 191.533 457.044 189.407 449.514 185.477C441.984 181.571 436.765 175.316 434.081 167.133C431.198 158.95 431.024 148.963 433.186 137.195C433.534 136.132 433.733 134.872 434.081 133.289C434.429 131.683 434.628 130.446 434.976 129.73C437.859 118.506 442.506 108.889 448.793 100.682C455.081 92.6719 462.785 86.442 472.129 82.3382C481.274 78.0614 491.513 76.1084 502.472 76.1084C515.047 76.1084 524.913 78.6053 532.095 83.599C539.278 88.5928 543.95 95.3665 546.286 103.895C548.622 112.449 548.622 122.239 546.286 133.116L545.391 138.283C545.043 139.89 544.322 141.126 542.881 142.189C541.44 143.252 539.998 143.623 538.383 143.623H469.644V144.34C469.644 144.686 469.47 144.884 469.296 145.23C468.575 149.334 468.575 153.067 469.122 156.627C469.668 160.013 471.085 162.683 473.421 164.809C475.757 166.935 478.814 167.825 482.765 167.825C485.449 167.825 487.959 167.282 490.121 166.392C492.283 165.502 494.073 164.439 495.688 163.178C497.303 161.942 498.571 160.854 499.639 160.162C501.255 158.728 502.522 157.838 503.218 157.492C504.113 157.146 505.38 156.948 507.169 156.948H533.91C535.351 156.948 536.42 157.294 537.14 158.184C537.861 159.074 538.035 160.137 537.488 161.571C536.768 164.068 534.978 166.911 531.921 170.298C529.039 173.684 524.913 177.071 519.719 180.458C514.501 183.845 508.412 186.515 501.404 188.641C494.396 190.767 486.518 191.855 477.72 191.855V191.509L477.696 191.533ZM474.291 122.412H510.723V122.066C512.165 117.443 512.339 113.512 511.444 110.125C510.723 106.738 509.108 104.069 506.772 102.289C504.436 100.509 501.205 99.4456 497.428 99.4456C493.65 99.4456 490.072 100.336 487.015 102.289C483.958 104.069 481.274 106.738 479.286 110.125C477.124 113.512 475.509 117.616 474.44 122.066V122.412H474.266H474.291Z" fill="white"/>
<path d="M547.702 230C546.087 230 545.018 229.456 544.123 228.566C543.403 227.503 543.055 226.242 543.403 224.635L573.547 83.5494C573.895 81.9425 574.616 80.7064 575.884 79.6187C577.151 78.5557 578.568 78.1848 580.183 78.1848H604.239C605.854 78.1848 606.923 78.7287 607.818 79.6187C608.712 80.5087 608.886 81.9425 608.538 83.5494L607.097 91.3862C611.396 86.9363 616.242 83.3764 621.461 80.3356C626.655 77.3196 633.489 75.8857 641.74 75.8857C648.748 75.8857 654.837 76.9488 660.23 79.2726C665.448 81.3987 669.748 84.7855 672.978 89.0623C676.209 93.3392 678.371 98.679 679.266 104.909C680.334 111.139 680.16 118.259 678.918 126.095C678.57 128.938 678.023 131.435 677.476 133.586C676.93 135.712 676.408 138.209 675.687 141.077C673.724 148.567 671.015 155.514 667.784 161.744C664.554 167.974 660.602 173.313 656.129 177.59C651.631 181.867 646.263 185.427 640.323 187.751C634.409 190.075 627.947 191.311 620.765 191.311C613.583 191.311 607.122 190.075 602.102 187.578C596.908 185.081 593.13 181.521 590.968 177.071L580.556 224.462C580.208 226.069 579.487 227.305 578.22 228.368C576.952 229.258 575.536 229.802 574.094 229.802H547.901L547.727 229.975L547.702 230ZM613.21 162.856C617.883 162.856 621.834 161.793 625.065 159.84C628.295 157.887 630.805 155.217 632.967 151.657C635.129 148.271 636.745 144.538 637.987 140.261C638.708 138.135 639.255 135.984 639.777 133.66C640.323 131.336 640.671 129.21 640.671 127.059C641.218 122.956 641.392 119.223 640.845 115.836C640.497 112.449 639.056 109.779 636.894 107.653C634.732 105.7 631.327 104.637 626.481 104.637C621.635 104.637 617.858 105.7 614.279 107.653C610.7 109.779 607.992 112.474 605.854 115.663C603.717 118.852 602.276 122.436 601.182 126.342C600.288 129.012 599.567 131.682 599.219 134.179C598.672 136.676 598.324 139.519 597.778 142.362C597.231 145.922 597.231 149.309 597.778 152.35C598.324 155.366 599.94 157.862 602.45 159.84C604.96 161.793 608.364 162.683 612.863 162.683L613.21 162.856Z" fill="white"/>
<path d="M692.189 189.383C690.574 189.383 689.306 188.839 688.61 187.949C687.716 187.059 687.542 185.625 687.716 184.216L718.059 43.1297C718.407 41.5228 719.128 40.2867 720.395 39.199C721.663 38.136 723.079 37.7651 724.521 37.7651H752.156C753.597 37.7651 754.666 38.309 755.56 39.199C756.455 40.262 756.629 41.5228 756.455 43.1297L746.042 90.8671C750.714 86.4172 755.734 82.8573 761.475 80.3604C767.216 77.6905 773.677 76.4544 781.207 76.4544C790.004 76.4544 797.36 78.2344 803.474 81.9673C809.587 85.7003 813.713 91.0401 816.223 98.3577C818.733 105.478 818.733 114.377 816.397 124.711L803.474 184.389C803.126 185.996 802.405 187.232 801.138 188.122C799.87 189.185 798.628 189.556 797.186 189.556H769.378C767.762 189.556 766.495 189.012 765.799 188.122C764.904 187.232 764.73 185.798 764.904 184.389L777.479 125.972C778.921 119.198 778.548 114.031 776.411 110.471C774.249 106.911 770.123 104.958 763.836 104.958C759.884 104.958 756.107 105.675 752.702 107.282C749.298 108.889 746.241 111.188 743.905 114.402C741.395 117.616 739.779 121.349 738.711 125.799L726.509 184.216C726.161 185.823 725.44 187.059 724.173 187.949C722.905 189.012 721.489 189.383 720.047 189.383H692.239H692.189Z" fill="white"/>
<path d="M889.261 187.949C889.982 188.838 891.224 189.382 892.84 189.382H918.337C919.779 189.382 921.22 189.036 922.463 187.949C923.73 187.059 924.426 185.822 924.799 184.216L946.146 83.7471C946.494 82.1402 946.32 80.7311 945.425 79.8411C944.531 78.9511 943.462 78.4072 942.021 78.4072H916.523C914.908 78.4072 913.466 78.7533 912.224 79.8411C910.956 80.9041 910.261 82.1649 909.888 83.7471L888.342 184.216C888.168 185.649 888.342 187.059 889.236 187.949H889.261Z" fill="white"/>
<path d="M954.422 189.382C952.807 189.382 951.539 188.839 950.844 187.949C949.949 187.059 949.775 185.625 949.949 184.216L971.495 83.7472C971.843 82.1403 972.564 80.9042 973.831 79.8412C975.099 78.7781 976.515 78.4073 978.131 78.4073H1001.64C1003.26 78.4073 1004.32 78.9512 1005.22 79.8412C1006.11 80.7311 1006.29 82.165 1005.94 83.7472L1004.5 91.04C1007.01 88.5432 1009.72 86.0463 1012.57 83.9202C1015.46 81.7942 1019.04 79.8164 1022.99 78.4073C1026.94 76.9735 1031.61 76.2812 1037.18 76.2812C1045.43 76.2812 1052.26 77.8881 1057.46 81.275C1062.68 84.4888 1066.25 89.1117 1068.04 94.9955C1072.72 89.6556 1077.91 85.2057 1083.65 81.6458C1089.39 78.0859 1096.4 76.479 1104.3 76.479C1112.2 76.479 1118.84 78.0859 1124.41 81.4728C1129.97 84.8596 1133.92 90.0264 1136.26 96.9732C1138.6 103.92 1138.6 112.82 1136.26 123.87L1123.34 184.611C1122.99 186.218 1122.27 187.454 1121 188.344C1119.73 189.407 1118.32 189.778 1116.88 189.778H1091.93C1090.31 189.778 1089.04 189.234 1088.35 188.344C1087.45 187.454 1087.28 186.02 1087.45 184.611L1100.2 125.477C1101.27 120.483 1101.64 116.577 1100.92 113.537C1100.2 110.694 1098.76 108.543 1096.8 107.307C1094.83 106.071 1092.12 105.354 1089.07 105.354C1086.38 105.354 1083.5 106.071 1080.64 107.307C1077.76 108.543 1075.25 110.694 1072.91 113.537C1070.58 116.38 1068.96 120.483 1067.89 125.477L1055.15 184.611C1054.8 186.218 1054.08 187.454 1052.81 188.344C1051.54 189.407 1050.13 189.778 1048.68 189.778H1023.73C1022.12 189.778 1020.85 189.234 1020.15 188.344C1019.26 187.454 1019.09 186.02 1019.26 184.611L1032.18 125.477C1033.25 120.483 1033.25 116.577 1032.53 113.537C1031.81 110.521 1030.37 108.543 1028.41 107.307C1026.44 106.071 1023.91 105.354 1020.88 105.354C1018.19 105.354 1015.31 106.071 1012.45 107.307C1009.57 108.543 1007.06 110.694 1004.72 113.537C1002.39 116.38 1000.77 120.31 999.702 125.106L986.779 184.611C986.431 186.218 985.71 187.454 984.443 188.344C983.175 189.407 981.759 189.778 980.318 189.778H954.82L954.472 189.432L954.422 189.382Z" fill="white"/>
<path d="M848.927 189.728C859.605 189.728 868.262 181.117 868.262 170.495C868.262 159.873 859.605 151.262 848.927 151.262C838.249 151.262 829.593 159.873 829.593 170.495C829.593 181.117 838.249 189.728 848.927 189.728Z" fill="white"/>
<path d="M935.833 66.4668C946.512 66.4668 955.168 57.8557 955.168 47.2334C955.168 36.6111 946.512 28 935.833 28C925.155 28 916.499 36.6111 916.499 47.2334C916.499 57.8557 925.155 66.4668 935.833 66.4668Z" fill="white"/>
<path d="M120.677 96.3669C135.774 96.3669 148 84.1408 148 69.0438C148 53.9468 135.774 41.7207 120.677 41.7207C105.58 41.7207 93.3535 53.9468 93.3535 69.0438C93.3535 84.1408 105.58 96.3669 120.677 96.3669Z" fill="#029AFF"/>
<path d="M27.3231 189.721C42.4201 189.721 54.6462 177.495 54.6462 162.398C54.6462 147.301 42.4201 135.075 27.3231 135.075C12.2261 135.075 0 147.326 0 162.398C0 177.47 12.2261 189.721 27.3231 189.721Z" fill="#029AFF"/>
<path d="M101.372 49.7396C75.46 38.9984 44.5483 44.171 23.4867 65.2078C2.42518 86.2694 -2.72264 117.206 7.99375 143.093L101.372 49.7148V49.7396Z" fill="#029AFF"/>
<path d="M46.627 181.727C72.5393 192.468 103.451 187.295 124.513 166.259C145.574 145.197 150.722 114.261 139.981 88.373L46.627 181.727Z" fill="#029AFF"/>
</svg>
